<?xml version="1.0" standalone="no"?>
<!DOCTYPE svg PUBLIC "-//W3C//DTD SVG 20010904//EN"
 "http://www.w3.org/TR/2001/REC-SVG-20010904/DTD/svg10.dtd">
<svg version="1.0" xmlns="http://www.w3.org/2000/svg"
 width="2048.000000pt" height="411.000000pt" viewBox="0 0 2048.000000 411.000000"
 preserveAspectRatio="xMidYMid meet">

<g transform="translate(0.000000,411.000000) scale(0.100000,-0.100000)"
fill="#000000" stroke="none">
<path d="M0 3125 l0 -985 7805 0 7805 0 0 985 0 985 -7805 0 -7805 0 0 -985z
m5200 355 l0 -51 -67 3 -68 3 -3 33 c-6 57 1 62 73 62 l65 0 0 -50z m7198 36
c-15 -11 -18 -30 -18 -120 0 -88 -3 -106 -15 -106 -13 0 -15 -21 -15 -125 0
-107 -2 -125 -16 -125 -12 0 -15 -9 -13 -37 1 -21 2 -64 1 -95 l-2 -58 -65 0
-65 0 0 80 c0 47 4 80 10 80 6 0 10 40 10 99 0 75 4 103 15 115 11 11 15 40
15 120 0 88 3 106 15 106 11 0 15 11 15 40 l0 40 73 0 c62 -1 70 -2 55 -14z
m662 -36 l0 -50 -65 0 -65 0 0 36 c0 47 21 63 83 64 l47 0 0 -50z m-2270 -55
c0 -30 -4 -55 -10 -55 -5 0 -10 -7 -10 -15 0 -11 12 -15 50 -15 l50 0 0 -55 0
-55 -50 0 -50 0 0 -50 c0 -36 -4 -52 -15 -56 -12 -5 -15 -26 -15 -100 l0 -94
40 0 40 0 0 -40 0 -40 -76 0 c-73 0 -77 1 -110 34 -34 34 -34 35 -34 125 0 74
3 91 15 91 12 0 15 14 15 64 0 63 -1 65 -27 68 -26 3 -28 7 -31 56 l-3 52 40
0 41 0 0 70 0 70 70 0 70 0 0 -55z m-6436 -70 c3 -8 16 -15 30 -15 13 0 26 -5
28 -11 2 -5 12 -11 23 -13 13 -2 21 -12 23 -29 2 -15 10 -27 18 -27 11 0 14
-21 14 -110 0 -91 -3 -110 -15 -110 -11 0 -15 -11 -15 -36 0 -26 -7 -43 -25
-60 -14 -13 -25 -32 -25 -44 0 -15 -6 -20 -25 -20 -14 0 -28 -7 -31 -15 -5
-12 -24 -15 -84 -15 -60 0 -79 3 -84 15 -11 29 -26 15 -26 -24 0 -22 -5 -41
-12 -43 -6 -2 -12 -26 -13 -53 -1 -60 -14 -66 -127 -56 -13 1 -9 49 4 53 7 3
13 42 16 109 2 57 8 106 13 107 5 2 9 57 9 123 0 97 3 121 15 125 11 5 15 22
15 70 l0 64 66 0 c52 0 70 -4 80 -17 13 -17 13 -17 14 0 0 13 9 17 40 17 27 0
43 5 46 15 4 8 10 15 14 15 4 0 10 -7 14 -15z m1620 0 c3 -9 18 -15 40 -15 21
0 36 -6 40 -15 3 -8 17 -15 31 -15 23 0 25 -3 25 -50 0 -27 5 -50 10 -50 6 0
10 -13 10 -30 0 -16 -4 -30 -10 -30 -5 0 -11 -60 -12 -147 l-3 -148 -64 -3
c-50 -2 -67 0 -73 12 -11 20 -47 21 -54 1 -5 -12 -24 -15 -84 -15 -60 0 -79 3
-84 15 -3 8 -15 15 -26 15 -35 0 -50 24 -50 79 0 28 5 51 10 51 6 0 10 9 10
21 0 28 40 69 68 69 12 0 22 5 22 10 0 6 18 10 40 10 28 0 40 4 40 15 0 11 16
15 68 17 l67 3 3 38 c2 28 0 37 -12 37 -9 0 -16 7 -16 15 0 26 -67 19 -94 -10
-20 -22 -32 -25 -90 -25 -36 0 -66 2 -66 5 0 9 40 45 49 45 5 0 11 12 13 28 2
19 8 26 21 24 9 -2 20 4 23 13 5 11 21 15 60 15 41 0 54 4 54 15 0 8 6 15 14
15 8 0 16 -7 20 -15z m1006 0 c0 -10 10 -15 28 -15 20 0 33 -7 42 -25 7 -14
19 -25 27 -25 20 0 18 -136 -2 -144 -12 -4 -15 -26 -15 -111 0 -63 -4 -105
-10 -105 -5 0 -10 -18 -10 -40 l0 -40 -70 0 c-67 0 -70 1 -70 24 0 13 7 26 15
30 12 4 15 26 15 110 0 83 3 105 15 110 23 8 19 68 -5 89 -22 19 -120 25 -120
7 0 -5 -7 -10 -15 -10 -12 0 -15 -19 -15 -110 0 -91 -3 -110 -15 -110 -12 0
-15 -14 -15 -70 l0 -70 -65 0 -65 0 0 55 c0 30 5 55 10 55 6 0 10 42 10 105 0
85 3 107 15 111 12 5 15 24 15 85 l0 79 69 0 c52 0 70 -4 75 -15 3 -8 12 -15
21 -15 9 0 18 7 21 15 4 10 20 15 45 15 26 0 42 5 45 15 4 8 10 15 15 15 5 0
9 -7 9 -15z m796 0 c4 -9 19 -15 40 -15 25 0 43 -8 64 -30 17 -17 30 -35 30
-40 0 -6 7 -10 15 -10 12 0 15 -19 15 -110 0 -91 -3 -110 -15 -110 -9 0 -15
-9 -15 -21 0 -11 -7 -27 -15 -36 -8 -8 -12 -19 -9 -24 12 -20 -6 -59 -28 -59
-11 0 -31 -11 -44 -25 -21 -23 -30 -25 -114 -25 -68 0 -90 3 -90 13 0 13 -24
28 -62 41 -13 4 -18 16 -18 46 0 29 -4 40 -15 40 -11 0 -15 12 -15 50 0 36 4
52 15 56 10 4 15 20 15 45 0 28 4 39 15 39 9 0 15 9 15 24 0 13 5 26 12 28 6
2 13 14 15 26 4 31 34 60 56 56 10 -1 21 4 24 12 3 8 19 14 39 14 22 0 37 6
40 15 4 8 10 15 15 15 5 0 12 -7 15 -15z m5948 0 c4 -10 20 -15 50 -15 37 0
51 -6 76 -30 30 -29 30 -31 30 -134 l0 -105 -147 -3 c-143 -3 -146 -3 -150
-26 -2 -13 3 -25 12 -28 8 -4 15 -17 15 -30 0 -19 5 -24 25 -24 14 0 28 -7 31
-15 4 -8 10 -15 15 -15 5 0 9 7 9 15 0 10 10 15 30 15 25 0 30 4 30 25 0 23 4
25 40 25 22 0 40 -4 40 -10 0 -5 11 -10 25 -10 14 0 25 -5 25 -11 0 -19 -88
-99 -109 -99 -12 0 -21 -6 -21 -15 0 -12 -17 -15 -89 -15 l-90 0 -50 49 -51
48 0 102 c0 83 3 101 15 101 11 0 15 11 15 39 0 25 5 41 15 45 8 3 15 17 15
31 0 19 5 25 21 25 12 0 32 11 45 25 16 18 34 25 59 25 24 0 35 4 35 15 0 8 6
15 14 15 8 0 16 -7 20 -15z m1036 -55 l0 -70 -40 0 c-22 0 -40 -4 -40 -10 0
-5 -10 -10 -22 -10 -28 0 -66 -39 -62 -63 1 -10 -4 -21 -12 -24 -9 -3 -14 -20
-14 -44 0 -28 -4 -39 -15 -39 -12 0 -15 -17 -15 -95 l0 -95 -71 0 -71 0 4 67
c2 39 9 68 16 71 8 2 12 36 12 108 0 84 3 106 15 110 11 5 15 22 15 70 l0 64
70 0 c68 0 70 -1 70 -25 0 -14 3 -25 6 -25 4 0 17 11 30 25 16 18 34 25 59 25
24 0 35 4 35 15 0 8 7 15 15 15 12 0 15 -14 15 -70z m-9580 -50 c0 -71 -3 -92
-15 -96 -12 -5 -15 -27 -15 -110 0 -84 -3 -106 -15 -110 -10 -4 -15 -20 -15
-45 l0 -39 -64 0 c-62 0 -94 14 -62 26 13 5 16 26 16 115 0 90 3 109 15 109
12 0 15 18 15 100 0 125 9 140 87 140 l53 0 0 -90z m4814 74 c3 -8 10 -12 16
-9 5 3 10 -1 10 -9 0 -9 7 -16 15 -16 13 0 15 -22 15 -135 0 -111 -3 -137 -15
-141 -12 -5 -15 -24 -15 -85 l0 -79 -55 0 c-42 0 -55 3 -55 15 0 9 -9 15 -24
15 -13 0 -26 -7 -30 -15 -4 -12 -24 -15 -91 -15 -72 0 -88 3 -105 20 -11 11
-20 29 -20 40 0 11 -7 20 -15 20 -11 0 -15 11 -15 40 0 27 5 43 15 46 8 4 15
15 15 25 0 27 31 59 57 59 13 0 23 5 23 10 0 6 11 10 25 10 14 0 28 7 31 15 5
11 22 15 70 15 l64 0 0 55 0 55 -40 0 c-29 0 -40 -4 -40 -15 0 -8 -7 -15 -15
-15 -8 0 -15 -4 -15 -10 0 -6 -28 -10 -65 -10 -37 0 -65 4 -65 10 0 6 5 10 10
10 6 0 10 10 10 21 0 12 15 37 33 55 l32 33 116 0 c97 1 118 -2 123 -15z
m1696 6 c0 -5 7 -10 15 -10 8 0 15 -7 15 -15 0 -8 7 -15 15 -15 11 0 15 -11
15 -39 0 -25 5 -41 15 -45 11 -4 15 -22 15 -71 l0 -65 -165 0 c-140 0 -165 -2
-165 -15 0 -8 7 -15 15 -15 11 0 15 -11 15 -40 0 -36 3 -40 25 -40 16 0 25 -6
25 -15 0 -29 44 -16 80 25 33 37 80 55 80 30 0 -5 14 -10 30 -10 20 0 30 -5
30 -15 0 -8 -7 -15 -15 -15 -8 0 -15 -6 -15 -13 0 -8 -11 -20 -25 -27 -14 -7
-25 -19 -25 -27 0 -7 -11 -13 -25 -13 -14 0 -28 -7 -31 -15 -4 -10 -20 -15
-45 -15 -28 0 -39 -4 -39 -15 0 -8 -5 -15 -10 -15 -6 0 -13 7 -16 15 -4 10
-20 15 -45 15 -26 0 -39 5 -39 13 0 8 -11 20 -25 27 -14 7 -25 19 -25 27 0 7
-7 13 -15 13 -12 0 -15 19 -15 109 0 88 3 110 15 115 8 3 15 16 15 30 0 13 5
26 12 28 7 3 13 18 14 34 1 16 3 32 3 37 1 4 11 7 24 7 12 1 31 12 42 25 19
23 26 25 123 25 61 0 102 -4 102 -10z m1349 -96 c0 -81 -4 -107 -15 -111 -11
-4 -14 -28 -14 -108 0 -82 -3 -104 -15 -109 -8 -3 -15 -17 -15 -31 0 -25 -2
-26 -52 -23 l-53 3 -3 103 c-2 85 0 103 13 108 12 5 15 26 15 115 0 90 3 109
15 109 9 0 15 9 15 25 0 24 3 25 55 25 l55 0 -1 -106z m-4249 -124 l0 -70
-125 0 -125 0 0 25 c0 14 7 28 15 31 10 4 15 20 15 45 l0 39 110 0 110 0 0
-70z"/>
<path d="M4233 3215 c-7 -8 -13 -19 -13 -25 0 -5 -7 -10 -15 -10 -12 0 -15
-16 -15 -80 0 -62 -3 -82 -15 -86 -8 -4 -15 -10 -15 -15 0 -5 7 -9 15 -9 8 0
15 -4 15 -10 0 -38 93 -69 106 -35 4 8 12 15 20 15 8 0 14 10 14 25 0 14 5 25
10 25 17 0 13 189 -4 206 -19 18 -87 18 -103 -1z"/>
<path d="M5860 3055 c0 -8 -5 -15 -11 -15 -16 0 -38 -31 -39 -52 0 -42 63 -78
76 -43 4 8 17 15 30 15 15 0 24 6 24 15 0 8 7 15 15 15 11 0 15 11 15 40 l0
40 -55 0 c-42 0 -55 -3 -55 -15z"/>
<path d="M7720 3245 c0 -8 -5 -15 -11 -15 -21 0 -39 -29 -39 -65 0 -22 -6 -38
-15 -41 -11 -5 -15 -22 -15 -64 0 -53 3 -62 34 -94 35 -38 63 -46 72 -21 4 8
12 15 20 15 9 0 14 11 14 30 0 17 5 30 10 30 6 0 10 42 10 105 0 63 -4 105
-10 105 -5 0 -10 7 -10 15 0 10 -10 15 -30 15 -20 0 -30 -5 -30 -15z"/>
<path d="M13655 3235 c-11 -14 -26 -25 -32 -25 -8 0 -13 -13 -13 -30 l0 -31
83 3 82 3 3 38 c3 34 1 37 -23 37 -14 0 -28 7 -31 15 -9 23 -47 17 -69 -10z"/>
<path d="M9800 3055 c0 -9 -9 -15 -25 -15 -24 0 -25 -3 -25 -55 l0 -55 40 0
c29 0 40 4 40 15 0 8 9 15 20 15 32 0 60 36 60 75 l0 35 -55 0 c-42 0 -55 -3
-55 -15z"/>
<path d="M11556 3245 c-3 -8 -17 -15 -31 -15 -20 0 -25 -5 -25 -25 0 -14 -4
-25 -10 -25 -5 0 -10 -7 -10 -15 0 -12 16 -15 80 -15 l80 0 0 40 c0 36 -2 40
-25 40 -16 0 -25 6 -25 15 0 8 -6 15 -14 15 -8 0 -16 -7 -20 -15z"/>
<path d="M8980 765 l0 -465 95 0 95 0 0 205 0 205 150 0 150 0 2 -202 3 -203
95 0 95 0 -1 48 c-1 26 -2 234 -3 462 l-1 416 -92 -3 -93 -3 -3 -172 -2 -173
-150 0 -150 0 0 175 0 175 -95 0 -95 0 0 -465z"/>
<path d="M11780 765 l0 -466 93 3 92 3 3 463 2 462 -95 0 -95 0 0 -465z"/>
<path d="M12740 765 l0 -466 93 3 92 3 3 463 2 462 -95 0 -95 0 0 -465z"/>
<path d="M16760 1080 c0 -127 -2 -150 -15 -150 -8 0 -15 7 -15 15 0 9 -9 15
-24 15 -13 0 -26 7 -30 15 -4 11 -23 15 -79 15 -70 0 -75 -1 -97 -30 -14 -18
-32 -30 -46 -30 -19 0 -24 -5 -24 -24 0 -13 -7 -26 -15 -30 -8 -3 -15 -16 -15
-30 0 -13 -7 -26 -15 -30 -11 -4 -15 -21 -15 -65 0 -33 -4 -63 -10 -66 -5 -3
-10 -17 -10 -31 0 -13 5 -24 10 -24 6 0 10 -33 10 -80 0 -64 3 -80 15 -80 10
0 15 -10 15 -30 0 -20 5 -30 15 -30 9 0 15 -9 15 -25 0 -19 5 -25 23 -25 22 0
57 -31 57 -50 0 -6 39 -10 94 -10 74 0 95 3 100 15 3 8 17 15 31 15 16 0 25 6
25 15 0 17 19 21 21 5 1 -5 3 -14 4 -20 1 -5 3 -14 4 -20 0 -6 35 -10 81 -10
l80 0 0 465 0 465 -95 0 -95 0 0 -150z m-36 -264 l36 -33 0 -139 c0 -172 -2
-174 -115 -174 -69 0 -75 2 -75 20 0 11 -7 23 -15 26 -12 5 -15 31 -15 145 0
92 4 139 11 139 14 0 39 25 39 39 0 6 21 11 49 11 43 0 55 -5 85 -34z"/>
<path d="M10630 975 c0 -10 -10 -15 -30 -15 -16 0 -30 -5 -30 -11 0 -14 -55
-69 -69 -69 -6 0 -11 -7 -11 -15 0 -8 -7 -15 -15 -15 -9 0 -15 -9 -15 -24 0
-13 -5 -26 -11 -28 -14 -5 -13 -272 1 -276 6 -2 10 -14 10 -27 0 -12 7 -25 15
-29 8 -3 15 -17 15 -31 0 -16 6 -25 15 -25 8 0 15 -7 15 -15 0 -8 5 -15 11
-15 14 0 39 -25 39 -39 0 -6 14 -11 30 -11 20 0 30 -5 30 -15 0 -12 16 -15 80
-15 64 0 80 3 80 15 0 10 11 15 35 15 28 0 44 9 75 40 22 22 45 40 50 40 6 0
10 14 10 30 0 17 5 30 10 30 6 0 10 16 10 35 0 22 6 38 15 41 12 5 15 26 15
99 0 73 -3 94 -15 99 -9 3 -15 19 -15 41 0 19 -4 35 -10 35 -5 0 -10 9 -10 21
0 26 -95 119 -121 119 -10 0 -19 7 -19 15 0 12 -17 15 -95 15 -78 0 -95 -3
-95 -15z m162 -152 c2 -16 8 -27 16 -25 9 1 12 -34 12 -153 0 -131 -2 -155
-15 -155 -9 0 -15 -9 -15 -25 0 -24 -2 -25 -70 -25 -68 0 -70 1 -70 25 0 14
-4 25 -10 25 -5 0 -10 25 -10 55 0 42 -3 55 -15 55 -11 0 -15 11 -15 40 0 27
5 43 15 46 11 5 15 22 15 70 0 36 4 64 10 64 6 0 10 7 10 15 0 12 14 15 69 15
69 0 70 0 73 -27z"/>
<path d="M13914 975 c-4 -10 -20 -15 -52 -15 -38 0 -50 -5 -78 -35 -19 -18
-34 -43 -34 -55 0 -11 -7 -20 -15 -20 -9 0 -15 -9 -15 -25 0 -25 1 -25 85 -25
47 0 88 -1 93 -2 4 -2 8 9 10 25 l3 27 85 0 84 0 0 -55 0 -55 -40 0 c-27 0
-43 -5 -46 -15 -5 -11 -21 -15 -60 -15 -43 0 -54 -3 -54 -16 0 -10 -6 -14 -15
-10 -8 3 -21 -1 -29 -9 -8 -8 -21 -15 -30 -15 -22 0 -86 -67 -86 -90 0 -11 -7
-20 -15 -20 -12 0 -15 -14 -15 -70 0 -42 4 -70 10 -70 6 0 35 -25 65 -55 l53
-55 85 0 c66 0 86 3 91 15 3 8 17 15 31 15 16 0 25 6 25 15 0 9 9 15 24 15 19
0 25 -6 28 -27 3 -28 4 -28 86 -31 l82 -3 0 56 c0 42 -3 55 -15 55 -13 0 -15
33 -15 235 0 202 -2 235 -15 235 -9 0 -15 9 -15 25 0 20 -5 25 -25 25 -16 0
-25 6 -25 15 0 10 -10 15 -30 15 -20 0 -30 5 -30 15 0 12 -17 15 -90 15 -71 0
-92 -3 -96 -15z m166 -423 c0 -52 -19 -77 -62 -84 -13 -2 -22 -9 -20 -16 1 -8
-16 -12 -58 -12 -47 0 -60 3 -60 15 0 8 -4 15 -10 15 -13 0 -13 47 0 52 5 2
11 14 13 28 3 18 11 26 30 28 15 2 27 8 27 13 0 5 32 9 70 9 l70 0 0 -48z"/>
<path d="M15035 978 c-3 -7 -4 -162 -3 -343 l3 -330 95 0 95 0 1 234 c2 252 7
281 51 281 13 0 26 7 29 15 4 10 20 15 45 15 28 0 39 -4 39 -15 0 -8 7 -15 15
-15 13 0 15 -36 15 -260 l0 -260 80 0 80 0 0 294 0 295 -49 50 -48 51 -70 0
c-54 0 -72 -4 -77 -15 -3 -8 -17 -15 -31 -15 -16 0 -25 -6 -25 -15 0 -9 -9
-15 -24 -15 -19 0 -25 6 -28 28 l-3 27 -93 3 c-68 2 -94 -1 -97 -10z"/>
<path d="M17910 975 c0 -10 -10 -15 -30 -15 -16 0 -30 -5 -30 -11 0 -14 -55
-69 -69 -69 -6 0 -11 -7 -11 -15 0 -8 -7 -15 -15 -15 -9 0 -15 -9 -15 -25 0
-14 -4 -25 -10 -25 -6 0 -10 -53 -10 -140 0 -87 4 -140 10 -140 6 0 10 -11 10
-24 0 -13 7 -26 15 -30 8 -3 15 -17 15 -31 0 -16 6 -25 15 -25 8 0 15 -7 15
-15 0 -8 5 -15 11 -15 14 0 39 -25 39 -39 0 -6 11 -11 25 -11 14 0 28 -7 31
-15 9 -22 194 -22 194 0 0 9 9 15 24 15 13 0 26 7 30 15 3 8 14 15 25 15 27 0
81 54 81 80 0 11 7 23 15 26 8 4 15 17 15 30 0 23 -3 24 -75 24 -74 0 -75 0
-115 -40 -36 -36 -45 -40 -90 -40 -35 0 -50 4 -50 13 0 8 -11 20 -25 27 -20
11 -25 21 -25 52 0 25 -5 41 -15 44 -45 18 6 24 190 24 l205 0 0 69 c0 52 -4
70 -15 75 -11 4 -15 20 -15 56 0 27 -4 50 -10 50 -5 0 -10 11 -10 25 0 16 -6
25 -15 25 -8 0 -15 7 -15 15 0 9 -9 15 -24 15 -14 0 -32 12 -46 30 -23 30 -23
30 -126 30 -86 0 -104 -3 -104 -15z m110 -110 c0 -9 9 -15 25 -15 16 0 25 -6
25 -15 0 -8 7 -15 15 -15 11 0 15 -11 15 -39 0 -26 5 -41 16 -45 38 -15 -5
-26 -102 -26 l-104 0 0 50 c0 57 21 90 57 90 14 0 23 6 23 15 0 8 7 15 15 15
8 0 15 -7 15 -15z"/>
<path d="M19060 645 l0 -346 93 3 92 3 3 200 c2 164 5 201 17 208 8 4 15 17
15 27 0 28 31 60 57 60 13 0 23 4 23 9 0 6 24 11 53 13 l52 3 0 80 0 80 -34 3
c-23 2 -37 -2 -43 -12 -5 -9 -20 -16 -33 -16 -16 0 -25 -6 -25 -15 0 -8 -7
-15 -15 -15 -8 0 -15 -5 -15 -11 0 -13 -25 -39 -39 -39 -5 0 -11 24 -13 53
l-3 52 -92 3 -93 3 0 -346z"/>
</g>
</svg>
