<?xml version="1.0" standalone="no"?>
<!DOCTYPE svg PUBLIC "-//W3C//DTD SVG 20010904//EN"
 "http://www.w3.org/TR/2001/REC-SVG-20010904/DTD/svg10.dtd">
<svg version="1.0" xmlns="http://www.w3.org/2000/svg"
 width="217.000000pt" height="44.000000pt" viewBox="0 0 217.000000 44.000000"
 preserveAspectRatio="xMidYMid meet">

<g transform="translate(0.000000,44.000000) scale(0.100000,-0.100000)"
fill="#000000" stroke="none">
<path d="M0 335 l0 -105 825 0 825 0 0 105 0 105 -825 0 -825 0 0 -105z m1306
-23 c-13 -12 -17 8 -10 40 l9 33 3 -33 c2 -19 1 -36 -2 -40z m-165 13 c-10
-33 -12 -32 -16 5 -3 30 4 45 16 33 5 -5 5 -22 0 -38z m-664 18 c4 -12 -31
-53 -45 -53 -4 0 -6 16 -4 36 4 29 8 35 25 32 11 -2 22 -8 24 -15z m64 -26
c-8 -8 -11 -5 -11 9 0 27 14 41 18 19 2 -9 -1 -22 -7 -28z m107 15 c2 -15 -2
-22 -12 -22 -9 0 -19 0 -23 -1 -4 0 -9 5 -12 12 -2 7 2 10 11 7 8 -4 15 0 15
8 0 7 -4 11 -9 8 -4 -3 -8 0 -8 6 0 21 35 5 38 -18z m102 3 c0 -14 -5 -25 -11
-25 -6 0 -9 7 -6 15 4 8 2 17 -3 20 -6 4 -10 -3 -10 -14 0 -12 -4 -21 -9 -21
-4 0 -6 11 -3 25 3 16 11 25 23 25 14 0 19 -7 19 -25z m88 0 c5 -22 -18 -37
-35 -23 -9 7 -10 15 -2 30 12 23 32 19 37 -7z m224 0 c-4 -23 -23 -38 -34 -27
-4 4 -5 18 -1 30 7 29 40 25 35 -3z m186 8 c2 -7 -4 -13 -15 -13 -14 0 -15 -2
-4 -9 10 -6 10 -10 1 -16 -18 -11 -33 10 -25 35 7 22 35 24 43 3z m128 -31
c-11 -10 -15 4 -8 28 l7 25 3 -23 c2 -13 1 -26 -2 -30z m94 33 c0 -8 -8 -15
-17 -16 -16 0 -16 -1 1 -8 18 -7 18 -8 2 -14 -10 -4 -19 -1 -22 8 -9 21 3 45
21 45 8 0 15 -7 15 -15z m90 8 c0 -5 -7 -17 -15 -27 -14 -19 -15 -19 -15 7 0
17 5 27 15 27 8 0 15 -3 15 -7z"/>
<path d="M446 341 c-4 -7 -5 -15 -2 -18 9 -9 19 4 14 18 -4 11 -6 11 -12 0z"/>
<path d="M816 341 c-4 -7 -5 -15 -2 -18 9 -9 19 4 14 18 -4 11 -6 11 -12 0z"/>
<path d="M950 80 c0 -27 5 -50 10 -50 6 0 10 11 10 25 0 16 6 25 15 25 8 0 15
-9 15 -19 0 -11 5 -23 10 -26 6 -4 10 13 10 44 0 28 -4 51 -10 51 -5 0 -10 -9
-10 -20 0 -11 -7 -20 -15 -20 -8 0 -15 9 -15 20 0 11 -4 20 -10 20 -5 0 -10
-22 -10 -50z"/>
<path d="M1250 80 c0 -27 5 -50 10 -50 6 0 10 23 10 50 0 28 -4 50 -10 50 -5
0 -10 -22 -10 -50z"/>
<path d="M1350 80 c0 -27 5 -50 10 -50 6 0 10 23 10 50 0 28 -4 50 -10 50 -5
0 -10 -22 -10 -50z"/>
<path d="M1780 114 c0 -10 -6 -14 -15 -10 -9 3 -19 -3 -25 -14 -15 -28 4 -61
33 -56 19 2 22 10 25 49 2 28 -1 47 -7 47 -6 0 -11 -7 -11 -16z m-5 -44 c0 -7
-6 -15 -12 -17 -8 -3 -13 4 -13 17 0 13 5 20 13 18 6 -3 12 -11 12 -18z"/>
<path d="M1121 100 c-18 -11 -10 -64 11 -68 19 -4 41 30 32 52 -7 19 -27 26
-43 16z m29 -30 c0 -21 -15 -27 -25 -10 -7 12 2 30 16 30 5 0 9 -9 9 -20z"/>
<path d="M1469 99 c-11 -7 -10 -9 6 -9 18 0 18 -1 -3 -16 -29 -20 -23 -39 11
-39 24 -1 27 3 27 31 0 34 -18 48 -41 33z"/>
<path d="M1595 102 c-9 -10 -5 -72 5 -72 6 0 10 11 10 24 0 14 5 28 10 31 6 4
10 -7 10 -24 0 -17 5 -31 11 -31 6 0 9 16 7 37 -2 30 -7 37 -26 38 -12 1 -24
-1 -27 -3z"/>
<path d="M1892 98 c-17 -17 -15 -58 4 -65 8 -3 20 -1 27 6 8 8 6 11 -8 11 -20
1 -20 1 0 12 29 16 29 16 15 33 -15 18 -22 19 -38 3z"/>
<path d="M2020 69 c0 -21 5 -39 10 -39 6 0 10 10 10 23 0 13 5 28 11 34 7 7 4
12 -10 16 -19 5 -21 1 -21 -34z"/>
</g>
</svg>
