<?xml version="1.0" standalone="no"?>
<!DOCTYPE svg PUBLIC "-//W3C//DTD SVG 20010904//EN"
 "http://www.w3.org/TR/2001/REC-SVG-20010904/DTD/svg10.dtd">
<svg version="1.0" xmlns="http://www.w3.org/2000/svg"
 width="417.000000pt" height="84.000000pt" viewBox="0 0 417.000000 84.000000"
 preserveAspectRatio="xMidYMid meet">

<g transform="translate(0.000000,84.000000) scale(0.100000,-0.100000)"
fill="#000000" stroke="none">
<path d="M0 640 l0 -200 1590 0 1590 0 0 200 0 200 -1590 0 -1590 0 0 -200z
m1060 70 c0 -5 -7 -10 -15 -10 -8 0 -15 5 -15 10 0 6 7 10 15 10 8 0 15 -4 15
-10z m1456 -37 c-3 -27 -5 -58 -5 -70 -1 -14 -7 -23 -17 -23 -12 0 -14 8 -9
48 10 74 15 92 25 92 7 0 9 -19 6 -47z m144 37 c0 -5 -7 -10 -15 -10 -8 0 -15
5 -15 10 0 6 7 10 15 10 8 0 15 -4 15 -10z m-457 -22 c4 -12 1 -25 -5 -29 -7
-4 -9 -21 -5 -44 5 -30 3 -36 -11 -33 -12 2 -19 17 -23 48 -4 25 -2 47 2 48 5
2 9 10 9 18 0 23 27 16 33 -8z m-1293 -47 c0 -41 -14 -61 -42 -61 -10 0 -21
-7 -24 -15 -4 -8 -12 -15 -19 -15 -10 0 -11 9 -4 40 5 22 9 43 8 47 -5 29 4
42 29 45 43 6 52 -1 52 -41z m333 26 c2 -7 2 -28 0 -48 -4 -32 -8 -36 -36 -36
-18 0 -38 4 -44 9 -19 15 3 48 32 48 14 0 25 4 25 8 0 17 -13 21 -31 11 -13
-7 -19 -6 -19 1 0 13 40 29 57 23 6 -3 13 -10 16 -16z m197 -22 c0 -40 -9 -65
-22 -65 -5 0 -8 17 -6 38 2 28 -1 37 -12 37 -10 0 -16 -12 -18 -37 -2 -25 -8
-38 -17 -38 -11 0 -14 9 -11 33 2 17 4 40 5 49 1 10 11 18 29 20 42 6 52 -1
52 -37z m176 9 c14 -54 -51 -97 -79 -53 -15 23 0 69 26 78 30 11 46 4 53 -25z
m1214 -4 c0 -16 -7 -20 -30 -20 -16 0 -30 -4 -30 -9 0 -15 18 -23 25 -11 4 6
11 8 16 4 14 -8 -9 -34 -31 -34 -45 0 -51 78 -7 97 28 13 57 -1 57 -27z
m-1780 -7 c0 -40 -14 -72 -26 -61 -9 10 5 98 17 98 5 0 9 -17 9 -37z m995 27
c4 -6 4 -28 0 -49 -6 -37 -8 -39 -43 -37 -30 1 -38 5 -40 22 -2 16 4 24 27 32
38 14 42 35 5 26 -19 -5 -25 -4 -20 5 9 14 63 15 71 1z m349 -6 c11 -28 7 -33
-29 -36 -27 -2 -33 -6 -25 -17 7 -12 11 -12 23 -2 10 8 17 9 22 2 3 -6 -5 -16
-19 -22 -45 -21 -72 23 -46 72 13 24 65 26 74 3z m256 -28 c0 -40 -13 -66 -26
-53 -9 8 7 97 17 97 5 0 9 -20 9 -44z m343 26 c-13 -9 -26 -32 -29 -49 -4 -20
-13 -33 -21 -33 -11 0 -14 7 -9 23 3 12 6 34 6 50 0 25 3 27 38 27 37 0 37 0
15 -18z m-1203 -27 c0 -9 -9 -15 -25 -15 -24 0 -32 10 -18 23 12 13 43 7 43
-8z"/>
<path d="M854 645 c-7 -18 2 -45 15 -45 12 0 24 37 16 50 -9 15 -25 12 -31 -5z"/>
<path d="M1185 619 c-10 -14 -1 -21 19 -13 9 3 13 10 10 15 -7 12 -21 11 -29
-2z"/>
<path d="M1567 664 c-4 -4 -7 -20 -7 -36 0 -35 23 -34 28 1 4 25 -10 46 -21
35z"/>
<path d="M2776 663 c-11 -11 -6 -23 8 -23 8 0 17 4 20 9 7 10 -19 23 -28 14z"/>
<path d="M1990 620 c-8 -5 -11 -12 -8 -16 10 -9 38 3 38 16 0 12 -10 13 -30 0z"/>
<path d="M2340 650 c0 -5 7 -10 15 -10 8 0 15 5 15 10 0 6 -7 10 -15 10 -8 0
-15 -4 -15 -10z"/>
<path d="M1830 155 c0 -88 1 -95 20 -95 17 0 20 7 20 46 0 44 1 45 28 42 24
-3 27 -7 30 -45 3 -35 7 -43 23 -43 17 0 19 8 19 95 0 88 -1 95 -20 95 -16 0
-20 -7 -20 -35 0 -32 -2 -35 -30 -35 -28 0 -30 3 -30 35 0 28 -4 35 -20 35
-19 0 -20 -7 -20 -95z"/>
<path d="M2400 155 c0 -88 1 -95 20 -95 19 0 20 7 20 95 0 88 -1 95 -20 95
-19 0 -20 -7 -20 -95z"/>
<path d="M2590 155 c0 -88 1 -95 20 -95 19 0 20 7 20 95 0 88 -1 95 -20 95
-19 0 -20 -7 -20 -95z"/>
<path d="M3410 221 c0 -24 -3 -28 -24 -24 -46 9 -73 -68 -41 -114 12 -16 25
-21 60 -21 l45 1 0 94 c0 86 -1 93 -20 93 -15 0 -20 -7 -20 -29z m0 -86 c0
-28 -4 -35 -20 -35 -16 0 -20 7 -20 35 0 28 4 35 20 35 16 0 20 -7 20 -35z"/>
<path d="M2140 180 c-11 -11 -20 -31 -20 -44 0 -31 36 -76 61 -76 30 0 59 36
59 73 0 60 -59 88 -100 47z m60 -51 c0 -33 -3 -40 -17 -37 -32 6 -30 78 2 78
11 0 15 -11 15 -41z"/>
<path d="M2807 193 c-4 -3 -7 -13 -7 -20 0 -10 9 -12 35 -7 44 8 46 -8 3 -21
-74 -23 -62 -80 18 -80 l48 0 -3 55 c-1 30 -7 61 -13 68 -11 13 -70 17 -81 5z
m63 -82 c0 -11 -39 -25 -47 -18 -3 3 -2 10 2 16 8 13 45 15 45 2z"/>
<path d="M3060 129 c0 -62 2 -69 19 -69 17 0 20 8 23 52 2 41 7 54 21 56 14 3
17 -5 17 -52 0 -44 3 -56 15 -56 13 0 15 12 13 68 l-3 67 -52 2 -53 2 0 -70z"/>
<path d="M3627 182 c-34 -37 -10 -122 34 -122 29 0 59 18 59 35 0 18 -14 19
-40 3 -17 -11 -22 -10 -30 2 -8 12 -2 16 30 18 37 3 40 6 40 32 0 47 -61 68
-93 32z m49 -30 c-22 -5 -30 3 -21 18 5 8 11 7 22 -2 15 -12 14 -13 -1 -16z"/>
<path d="M3880 130 c0 -63 2 -70 20 -70 17 0 20 7 20 45 0 34 5 48 20 57 11 7
20 18 20 25 0 16 -12 17 -28 1 -9 -9 -12 -9 -12 0 0 7 -9 12 -20 12 -18 0 -20
-7 -20 -70z"/>
</g>
</svg>
